0
SECTION
2
HEADER
9
$INSUNITS
70
4
9
$ACADVER
1
AC1014
9
$HANDSEED
5
FFFF
0
ENDSEC
0
SECTION
2
TABLES
0
TABLE
2
VPORT
5
8
100
AcDbSymbolTable
0
ENDTAB
0
TABLE
2
LTYPE
5
5
100
AcDbSymbolTable
0
LTYPE
5
14
100
AcDbSymbolTableRecord
100
AcDbLinetypeTableRecord
2
BYBLOCK
70
0
0
LTYPE
5
15
100
AcDbSymbolTableRecord
100
AcDbLinetypeTableRecord
2
BYLAYER
70
0
0
LTYPE
5
16
100
AcDbSymbolTableRecord
100
AcDbLinetypeTableRecord
2
DASHED
70
0
3
Dashed __ __ __ __ __ __ __ __ __ __ __ __ __ _
72
65
73
2
40
0.75
49
0.5
74
0
49
-0.25
74
0
0
ENDTAB
0
TABLE
2
LAYER
5
2
100
AcDbSymbolTable
70
2
0
LAYER
5
50
100
AcDbSymbolTableRecord
100
AcDbLayerTableRecord
2
0
70
0
62
7
6
CONTINUOUS
0
ENDTAB
0
TABLE
2
STYLE
5
3
100
AcDbSymbolTable
70
1
0
STYLE
5
11
100
AcDbSymbolTableRecord
100
AcDbTextStyleTableRecord
2
STANDARD
70
0
0
ENDTAB
0
TABLE
2
VIEW
5
6
100
AcDbSymbolTable
70
0
0
ENDTAB
0
TABLE
2
UCS
5
7
100
AcDbSymbolTable
70
0
0
ENDTAB
0
TABLE
2
APPID
5
9
100
AcDbSymbolTable
70
2
0
APPID
5
12
100
AcDbSymbolTableRecord
100
AcDbRegAppTableRecord
2
ACAD
70
0
0
ENDTAB
0
TABLE
2
DIMSTYLE
5
A
100
AcDbSymbolTable
70
1
0
ENDTAB
0
TABLE
2
BLOCK_RECORD
5
1
100
AcDbSymbolTable
70
1
0
BLOCK_RECORD
5
1F
100
AcDbSymbolTableRecord
100
AcDbBlockTableRecord
2
*MODEL_SPACE
0
BLOCK_RECORD
5
1B
100
AcDbSymbolTableRecord
100
AcDbBlockTableRecord
2
*PAPER_SPACE
0
ENDTAB
0
ENDSEC
0
SECTION
2
BLOCKS
0
BLOCK
5
20
100
AcDbEntity
100
AcDbBlockBegin
2
*MODEL_SPACE
0
ENDBLK
5
21
100
AcDbEntity
100
AcDbBlockEnd
0
BLOCK
5
1C
100
AcDbEntity
100
AcDbBlockBegin
2
*PAPER_SPACE
0
ENDBLK
5
1D
100
AcDbEntity
100
AcDbBlockEnd
0
ENDSEC
0
SECTION
2
ENTITIES
0
POINT
5
100
100
AcDbEntity
8
0
100
AcDbPoint
10
3.9999999999999902
20
4.0000015104808995
30
0
0
POINT
5
101
100
AcDbEntity
8
0
100
AcDbPoint
10
28.799999999999994
20
4.0000015104808995
30
0
0
POINT
5
102
100
AcDbEntity
8
0
100
AcDbPoint
10
16.399999999999991
20
46.177201510480899
30
0
0
POINT
5
103
100
AcDbEntity
8
0
100
AcDbPoint
10
3.9999999999999902
20
105.8400015104809
30
0
0
POINT
5
104
100
AcDbEntity
8
0
100
AcDbPoint
10
28.799999999999994
20
105.8400015104809
30
0
0
LWPOLYLINE
5
105
100
AcDbEntity
8
0
100
AcDbPolyline
90
4
70
1
43
0.0
10
31.399999999999991
20
15.770001510480899
10
1.3999999999999924
20
15.770001510480899
10
1.3999999999999924
20
29.270001510480903
10
31.399999999999991
20
29.270001510480903
0
CIRCLE
5
106
100
AcDbEntity
8
0
100
AcDbCircle
10
28.799999999999994
20
105.8400015104809
30
0
40
0.99999999999999645
210
0
220
0
230
1
0
CIRCLE
5
107
100
AcDbEntity
8
0
100
AcDbCircle
10
3.9999999999999902
20
105.8400015104809
30
0
40
1
210
0
220
0
230
1
0
CIRCLE
5
108
100
AcDbEntity
8
0
100
AcDbCircle
10
28.799999999999994
20
4.0000015104808995
30
0
40
1
210
0
220
0
230
1
0
CIRCLE
5
109
100
AcDbEntity
8
0
100
AcDbCircle
10
3.9999999999999902
20
4.0000015104808995
30
0
40
1
210
0
220
0
230
1
0
CIRCLE
5
110
100
AcDbEntity
8
0
100
AcDbCircle
10
16.399999999999991
20
46.177201510480899
30
0
40
2.75
210
0
220
0
230
1
0
LINE
5
111
100
AcDbEntity
8
0
100
AcDbLine
10
-3.5997187003134057
20
122.00000000000003
30
0
11
-3.5997187003134057
21
-1.9999999999999929
31
0
0
LINE
5
112
100
AcDbEntity
8
0
100
AcDbLine
10
36.400281299684856
20
121.99999999999886
30
0
11
36.400281299677715
21
-2.0000000000011831
31
0
0
ARC
5
113
100
AcDbEntity
8
0
100
AcDbCircle
10
33.400281299684849
20
121.99999999999903
30
0
40
3.0000000000000071
210
-0
220
0
230
1
100
AcDbArc
50
0
51
90
0
LINE
5
114
100
AcDbEntity
8
0
100
AcDbLine
10
33.400281299684849
20
124.99999999999903
30
0
11
16.400281299685847
21
125
31
0
0
LINE
5
115
100
AcDbEntity
8
0
100
AcDbLine
10
-0.59971870031339858
20
125.00000000000003
30
0
11
16.400281299685847
21
125
31
0
0
ARC
5
116
100
AcDbEntity
8
0
100
AcDbCircle
10
-0.59971870031339858
20
122.00000000000003
30
0
40
3.0000000000000071
210
0
220
-0
230
1
100
AcDbArc
50
89.999999999999986
51
180
0
LINE
5
117
100
AcDbEntity
8
0
100
AcDbLine
10
32.400281299677516
20
-4.984761904762891
30
0
11
25.40028129967752
21
-4.9847619047625891
31
0
0
ARC
5
118
100
AcDbEntity
8
0
100
AcDbCircle
10
33.400281299677708
20
-2.0000000000010765
30
0
40
2.9999999999999893
210
0
220
0
230
1
100
AcDbArc
50
269.99999999999795
51
360
0
LINE
5
119
100
AcDbEntity
8
0
100
AcDbLine
10
25.40028129967752
20
-5.0000000000004796
30
0
11
16.400281299685847
21
-5
31
0
0
LINE
5
120
100
AcDbEntity
8
0
100
AcDbLine
10
7.4002812996866085
20
-4.9999999999999112
30
0
11
16.400281299685847
21
-5
31
0
0
LINE
5
121
100
AcDbEntity
8
0
100
AcDbLine
10
0.40028129968661563
20
-4.9847619047619851
30
0
11
7.4002812996866085
21
-4.9847619047619851
31
0
0
ARC
5
122
100
AcDbEntity
8
0
100
AcDbCircle
10
-0.59971870031339858
20
-1.9999999999999929
30
0
40
3.0000000000000071
210
0
220
0
230
1
100
AcDbArc
50
180
51
270
0
LINE
5
123
100
AcDbEntity
8
0
100
AcDbLine
10
-0.59971870031339858
20
-5
30
0
11
0.40028129968661563
21
-5
31
0
0
LINE
5
124
100
AcDbEntity
8
0
100
AcDbLine
10
-1.3497187003146349
20
122.20000000000101
30
0
11
-1.3497187003146349
21
-2.1999999999990649
31
0
0
ARC
5
125
100
AcDbEntity
8
0
100
AcDbCircle
10
-0.79971870031446013
20
-2.1999999999990116
30
0
40
0.55000000000017479
210
0
220
0
230
1
100
AcDbArc
50
180
51
269.99999999997783
0
LINE
5
126
100
AcDbEntity
8
0
100
AcDbLine
10
-0.79971870031467329
20
-2.7499999999991864
30
0
11
33.600281299685342
21
-2.7500000000010694
31
0
0
ARC
5
127
100
AcDbEntity
8
0
100
AcDbCircle
10
33.600281299685342
20
-2.20000000000109
30
0
40
0.54999999999997939
210
-0
220
0
230
1
100
AcDbArc
50
-90
51
0
0
LINE
5
128
100
AcDbEntity
8
0
100
AcDbLine
10
34.15028129968541
20
122.19999999999902
30
0
11
34.15028129968541
21
-2.2000000000009834
31
0
0
LINE
5
129
100
AcDbEntity
8
0
100
AcDbLine
10
16.400281299685847
20
129.50000000000003
30
0
11
16.400281299684924
21
-9.4999999999999929
31
0
0
LINE
5
130
100
AcDbEntity
8
0
100
AcDbLine
10
33.600281299685413
20
122.74999999999906
30
0
11
-0.79971870031456671
21
122.75000000000091
31
0
0
ARC
5
131
100
AcDbEntity
8
0
100
AcDbCircle
10
-0.79971870031456671
20
122.20000000000101
30
0
40
0.54999999999989058
210
0
220
-0
230
1
100
AcDbArc
50
90
51
180
0
ARC
5
132
100
AcDbEntity
8
0
100
AcDbCircle
10
33.6002812996852
20
122.19999999999902
30
0
40
0.55000000000021032
210
0
220
-0
230
1
100
AcDbArc
50
0
51
89.999999999977803
0
ENDSEC
0
SECTION
2
OBJECTS
0
DICTIONARY
5
C
100
AcDbDictionary
3
ACAD_GROUP
350
D
3
ACAD_MLINESTYLE
350
17
0
DICTIONARY
5
D
100
AcDbDictionary
0
DICTIONARY
5
1A
330
C
100
AcDbDictionary
0
DICTIONARY
5
17
100
AcDbDictionary
0
ENDSEC
0
EOF
